<svg width="64" height="64" viewBox="0 0 32 32" xmlns="http://www.w3.org/2000/svg" shape-rendering="crispEdges">
  <rect width="32" height="32" fill="#0077be" />
  <path d="M10 6h12v2h3v3h1v10h-1v3h-3v2h-12v-2h-3v-3h-1v-10h1v-3h3V6z" fill="#32cd32" />
  <g fill="#32cd32">
    <!-- Rugged edges -->
    <rect x="12" y="5" width="8" height="1" />
    <rect x="22" y="8" width="4" height="4" />
    <rect x="25" y="12" width="2" height="8" />
    <rect x="22" y="20" width="4" height="4" />
    <rect x="12" y="26" width="8" height="1" />
    <rect x="6" y="20" width="4" height="4" />
    <rect x="5" y="12" width="2" height="8" />
    <rect x="6" y="8" width="4" height="4" />
    <!-- Interior details to make it look less like a perfect oval -->
    <rect x="20" y="23" width="3" height="1" />
    <rect x="9" y="23" width="3" height="1" />
    <rect x="9" y="8" width="3" height="1" />
    <rect x="20" y="8" width="3" height="1" />
  </g>
</svg>