<svg width="64" height="64" viewBox="0 0 32 32" xmlns="http://www.w3.org/2000/svg" shape-rendering="crispEdges">
  <rect width="32" height="32" fill="#0077be" />
  <g fill="#32cd32">
    <!-- Island cluster 1 -->
    <rect x="4" y="5" width="3" height="2" />
    <rect x="5" y="7" width="1" height="1" />
    <!-- Island cluster 2 -->
    <rect x="12" y="3" width="2" height="2" />
    <rect x="14" y="4" width="1" height="1" />
    <!-- Island cluster 3 -->
    <rect x="22" y="6" width="4" height="3" />
    <rect x="24" y="9" width="2" height="1" />
    <!-- Island cluster 4 -->
    <rect x="6" y="14" width="2" height="2" />
    <rect x="8" y="15" width="2" height="1" />
    <!-- Island cluster 5 -->
    <rect x="16" y="12" width="3" height="3" />
    <rect x="15" y="13" width="1" height="1" />
    <!-- Island cluster 6 -->
    <rect x="25" y="18" width="2" height="2" />
    <rect x="27" y="17" width="1" height="1" />
    <!-- Island cluster 7 -->
    <rect x="4" y="24" width="4" height="2" />
    <rect x="5" y="22" width="2" height="2" />
    <!-- Island cluster 8 -->
    <rect x="15" y="25" width="2" height="3" />
    <rect x="17" y="26" width="1" height="1" />
    <!-- Island cluster 9 -->
    <rect x="22" y="24" width="5" height="4" />
    <rect x="21" y="25" width="1" height="2" />
    <rect x="27" y="23" width="1" height="2" />
  </g>
</svg>