<svg xmlns="http://www.w3.org/2000/svg" viewBox="0 0 32 32">
  <!-- Sombra -->
  <rect x="10" y="26" width="12" height="2" fill="#5d2906" opacity="0.4"/>
  
  <!-- Vasija -->
  <path d="M12 6h8v2h4v4h2v10h-2v4h-12v-4h-2v-10h2v-4h4z" fill="#a0522d"/>
  <path d="M12 6h8v2h-8zM20 8h4v4h-4zM24 12h2v10h-2zM6 12h2v10h-2zM8 8h4v-2h-4z" fill="#d2b48c"/>
  <path d="M10 24h12v2H10z" fill="#5d2906"/>
  
  <!-- Boca de la vasija -->
  <rect x="14" y="4" width="4" height="2" fill="#5d2906"/>
  
  <!-- Decoración de Espirales (Dorado) -->
  <rect x="12" y="14" width="8" height="2" fill="#ffd700" opacity="0.6"/>
  <rect x="14" y="12" width="2" height="6" fill="#ffd700" opacity="0.6"/>
</svg>
