<svg xmlns="http://www.w3.org/2000/svg" viewBox="0 0 32 32" shape-rendering="crispEdges">
  <!-- VFX Sombra Arrojada (Dithering 2x2) -->
  <g fill="#000000" fill-opacity="0.25">
    <!-- Patrón de damero desplazado para dar sensación de dirección -->
    <rect x="0" y="0" width="2" height="2"/>
    <rect x="4" y="0" width="2" height="2"/>
    <rect x="8" y="0" width="2" height="2"/>
    <rect x="12" y="0" width="2" height="2"/>
    <rect x="16" y="0" width="2" height="2"/>
    <rect x="20" y="0" width="2" height="2"/>
    <rect x="24" y="0" width="2" height="2"/>
    <rect x="28" y="0" width="2" height="2"/>

    <rect x="2" y="2" width="2" height="2"/>
    <rect x="6" y="2" width="2" height="2"/>
    <rect x="10" y="2" width="2" height="2"/>
    <rect x="14" y="2" width="2" height="2"/>
    <rect x="18" y="2" width="2" height="2"/>
    <rect x="22" y="2" width="2" height="2"/>
    <rect x="26" y="2" width="2" height="2"/>
    <rect x="30" y="2" width="2" height="2"/>

    <rect x="0" y="4" width="2" height="2"/>
    <rect x="4" y="4" width="2" height="2"/>
    <rect x="8" y="4" width="2" height="2"/>
    <rect x="12" y="4" width="2" height="2"/>
    <rect x="16" y="4" width="2" height="2"/>
    <rect x="20" y="4" width="2" height="2"/>
    <rect x="24" y="4" width="2" height="2"/>
    <rect x="28" y="4" width="2" height="2"/>

    <rect x="2" y="6" width="2" height="2"/>
    <rect x="6" y="6" width="2" height="2"/>
    <rect x="10" y="6" width="2" height="2"/>
    <rect x="14" y="6" width="2" height="2"/>
    <rect x="18" y="6" width="2" height="2"/>
    <rect x="22" y="6" width="2" height="2"/>
    <rect x="26" y="6" width="2" height="2"/>
    <rect x="30" y="6" width="2" height="2"/>

    <!-- Continuar el patrón -->
    <rect x="0" y="8" width="2" height="2"/> <rect x="4" y="8" width="2" height="2"/> <rect x="8" y="8" width="2" height="2"/> <rect x="12" y="8" width="2" height="2"/>
    <rect x="16" y="8" width="2" height="2"/> <rect x="20" y="8" width="2" height="2"/> <rect x="24" y="8" width="2" height="2"/> <rect x="28" y="8" width="2" height="2"/>
    <rect x="2" y="10" width="2" height="2"/> <rect x="6" y="10" width="2" height="2"/> <rect x="10" y="10" width="2" height="2"/> <rect x="14" y="10" width="2" height="2"/>
    <rect x="18" y="10" width="2" height="2"/> <rect x="22" y="10" width="2" height="2"/> <rect x="26" y="10" width="2" height="2"/> <rect x="30" y="10" width="2" height="2"/>
    
    <rect x="0" y="12" width="2" height="2"/> <rect x="4" y="12" width="2" height="2"/> <rect x="8" y="12" width="2" height="2"/> <rect x="12" y="12" width="2" height="2"/>
    <rect x="16" y="12" width="2" height="2"/> <rect x="20" y="12" width="2" height="2"/> <rect x="24" y="12" width="2" height="2"/> <rect x="28" y="12" width="2" height="2"/>
    <rect x="2" y="14" width="2" height="2"/> <rect x="6" y="14" width="2" height="2"/> <rect x="10" y="14" width="2" height="2"/> <rect x="14" y="14" width="2" height="2"/>
    <rect x="18" y="14" width="2" height="2"/> <rect x="22" y="14" width="2" height="2"/> <rect x="26" y="14" width="2" height="2"/> <rect x="30" y="14" width="2" height="2"/>

    <rect x="0" y="16" width="2" height="2"/> <rect x="4" y="16" width="2" height="2"/> <rect x="8" y="16" width="2" height="2"/> <rect x="12" y="16" width="2" height="2"/>
    <rect x="16" y="16" width="2" height="2"/> <rect x="20" y="16" width="2" height="2"/> <rect x="24" y="16" width="2" height="2"/> <rect x="28" y="16" width="2" height="2"/>
    <rect x="2" y="18" width="2" height="2"/> <rect x="6" y="18" width="2" height="2"/> <rect x="10" y="18" width="2" height="2"/> <rect x="14" y="18" width="2" height="2"/>
    <rect x="18" y="18" width="2" height="2"/> <rect x="22" y="18" width="2" height="2"/> <rect x="26" y="18" width="2" height="2"/> <rect x="30" y="18" width="2" height="2"/>

    <rect x="0" y="20" width="2" height="2"/> <rect x="4" y="20" width="2" height="2"/> <rect x="8" y="20" width="2" height="2"/> <rect x="12" y="20" width="2" height="2"/>
    <rect x="16" y="20" width="2" height="2"/> <rect x="20" y="20" width="2" height="2"/> <rect x="24" y="20" width="2" height="2"/> <rect x="28" y="20" width="2" height="2"/>
    <rect x="2" y="22" width="2" height="2"/> <rect x="6" y="22" width="2" height="2"/> <rect x="10" y="22" width="2" height="2"/> <rect x="14" y="22" width="2" height="2"/>
    <rect x="18" y="22" width="2" height="2"/> <rect x="22" y="22" width="2" height="2"/> <rect x="26" y="22" width="2" height="2"/> <rect x="30" y="22" width="2" height="2"/>

    <rect x="0" y="24" width="2" height="2"/> <rect x="4" y="24" width="2" height="2"/> <rect x="8" y="24" width="2" height="2"/> <rect x="12" y="24" width="2" height="2"/>
    <rect x="16" y="24" width="2" height="2"/> <rect x="20" y="24" width="2" height="2"/> <rect x="24" y="24" width="2" height="2"/> <rect x="28" y="24" width="2" height="2"/>
    <rect x="2" y="26" width="2" height="2"/> <rect x="6" y="26" width="2" height="2"/> <rect x="10" y="26" width="2" height="2"/> <rect x="14" y="26" width="2" height="2"/>
    <rect x="18" y="26" width="2" height="2"/> <rect x="22" y="26" width="2" height="2"/> <rect x="26" y="26" width="2" height="2"/> <rect x="30" y="26" width="2" height="2"/>

    <rect x="0" y="28" width="2" height="2"/> <rect x="4" y="28" width="2" height="2"/> <rect x="8" y="28" width="2" height="2"/> <rect x="12" y="28" width="2" height="2"/>
    <rect x="16" y="28" width="2" height="2"/> <rect x="20" y="28" width="2" height="2"/> <rect x="24" y="28" width="2" height="2"/> <rect x="28" y="28" width="2" height="2"/>
    <rect x="2" y="30" width="2" height="2"/> <rect x="6" y="30" width="2" height="2"/> <rect x="10" y="30" width="2" height="2"/> <rect x="14" y="30" width="2" height="2"/>
    <rect x="18" y="30" width="2" height="2"/> <rect x="22" y="30" width="2" height="2"/> <rect x="26" y="30" width="2" height="2"/> <rect x="30" y="30" width="2" height="2"/>
  </g>
</svg>