<svg xmlns="http://www.w3.org/2000/svg" viewBox="0 0 32 32">
  <!-- Sombra base -->
  <rect x="6" y="24" width="20" height="4" fill="#5d2906" opacity="0.4"/>
  
  <!-- Cuerpo de la choza (Paja) -->
  <path d="M12 6h8v2h4v2h2v4h2v10h-2v2h-18v-2h-2v-10h2v-4h2v-2z" fill="#d2b48c"/>
  <path d="M12 6h8v2h-8zM20 8h4v2h-4zM24 10h2v4h-2zM26 14h2v10h-2zM8 10h4v-2h-4zM6 14h2v-4h-2zM4 14h2v10h-2z" fill="#f0e68c"/>
  <path d="M6 24h20v2H6zM8 22h16v2H8z" fill="#8b4513"/>
  
  <!-- Techo (detalles de paja) -->
  <rect x="14" y="8" width="4" height="2" fill="#8b4513"/>
  <rect x="10" y="12" width="2" height="2" fill="#8b4513"/>
  <rect x="20" y="12" width="2" height="2" fill="#8b4513"/>
  
  <!-- Puerta -->
  <rect x="14" y="18" width="4" height="8" fill="#5d2906"/>
  
  <!-- Tótems -->
  <rect x="8" y="18" width="2" height="8" fill="#a0522d"/>
  <rect x="8" y="18" width="2" height="2" fill="#00f2ff"/>
  <rect x="22" y="18" width="2" height="8" fill="#a0522d"/>
  <rect x="22" y="18" width="2" height="2" fill="#00f2ff"/>
  
  <!-- Resplandor Dorado (Glow) -->
  <rect x="14" y="4" width="4" height="2" fill="#ffd700" opacity="0.6"/>
  <rect x="10" y="6" width="2" height="2" fill="#ffd700" opacity="0.4"/>
  <rect x="20" y="6" width="2" height="2" fill="#ffd700" opacity="0.4"/>
  <rect x="6" y="14" width="2" height="2" fill="#ffd700" opacity="0.3"/>
  <rect x="24" y="14" width="2" height="2" fill="#ffd700" opacity="0.3"/>
</svg>
