<svg width="32" height="32" viewBox="0 0 32 32" fill="none" xmlns="http://www.w3.org/2000/svg">
  <!-- Cloud Shadow (Dithered) -->
  <g fill="#000000">
    <!-- Dense core -->
    <path d="M8 8h16v16H8z" opacity="0.4" /> <!-- Using opacity for the group but the pixels are rects -->
    <!-- I'll draw individual pixels for dithering instead of using opacity if possible, 
         but instructions say "use dithering to simulate transparency". 
         I will use black pixels in a pattern. -->
    
    <!-- Pattern 50% dithering -->
    <path d="M10 10h2v2H10zM14 10h2v2H14zM18 10h2v2H18zM22 10h2v2H22z"/>
    <path d="M12 12h2v2H12zM16 12h2v2H16zM20 12h2v2H20zM24 12h2v2H24z"/>
    <path d="M10 14h2v2H10zM14 14h2v2H14zM18 14h2v2H18zM22 14h2v2H22z"/>
    <path d="M12 16h2v2H12zM16 16h2v2H16zM20 16h2v2H20zM24 16h2v2H24z"/>
    <path d="M10 18h2v2H10zM14 18h2v2H14zM18 18h2v2H18zM22 18h2v2H22z"/>
    <path d="M12 20h2v2H12zM16 20h2v2H16zM20 20h2v2H20zM24 20h2v2H24z"/>
    
    <!-- Sparse edges -->
    <rect x="6" y="14" width="2" height="2" />
    <rect x="26" y="14" width="2" height="2" />
    <rect x="14" y="6" width="2" height="2" />
    <rect x="14" y="26" width="2" height="2" />
    
    <rect x="8" y="8" width="2" height="2" />
    <rect x="22" y="8" width="2" height="2" />
    <rect x="8" y="22" width="2" height="2" />
    <rect x="22" y="22" width="2" height="2" />
  </g>
</svg>