<svg xmlns="http://www.w3.org/2000/svg" viewBox="0 0 32 32" shape-rendering="crispEdges">
  <!-- Suelo -->
  <rect x="2" y="26" width="28" height="2" fill="#3d2b1f"/>
  <!-- Troncos apilados -->
  <!-- Fila inferior -->
  <path d="M4 20h8v4H4zm10 0h8v4h-8zm10 0h4v4h-4z" fill="#5d2906"/> <!-- Bordes -->
  <rect x="5" y="21" width="6" height="2" fill="#a0522d"/>
  <rect x="15" y="21" width="6" height="2" fill="#a0522d"/>
  <!-- Fila media -->
  <path d="M8 14h8v4H8zm10 0h8v4h-8z" fill="#5d2906"/>
  <rect x="9" y="15" width="6" height="2" fill="#a0522d"/>
  <rect x="19" y="15" width="6" height="2" fill="#a0522d"/>
  <!-- Superior -->
  <path d="M12 8h8v4h-8z" fill="#5d2906"/>
  <rect x="13" y="9" width="6" height="2" fill="#a0522d"/>
  <!-- Brillos finales de madera -->
  <rect x="13" y="9" width="2" height="1" fill="#d2b48c"/>
  <rect x="5" y="21" width="2" height="1" fill="#d2b48c"/>
</svg>