<svg xmlns="http://www.w3.org/2000/svg" viewBox="0 0 32 32">
  <!-- Sombra base -->
  <rect x="4" y="26" width="24" height="4" fill="#555555" opacity="0.4"/>
  
  <!-- Estructura de Piedra Blanca -->
  <path d="M10 8h12v2h4v2h2v14h-24v-14h2v-2h4z" fill="#8b8b8b"/>
  <path d="M10 8h12v2h-12zM22 10h4v2h-4zM26 12h2v14h-2zM4 12h2v14h-2zM6 10h4v-2h-4z" fill="#ffffff"/>
  <path d="M6 24h20v2H6z" fill="#555555"/>
  
  <!-- Puerta (Dintel) -->
  <rect x="13" y="18" width="6" height="8" fill="#555555"/>
  <rect x="13" y="16" width="6" height="2" fill="#8b8b8b"/>
  
  <!-- Inscripciones Sagradas (Cian) -->
  <rect x="8" y="12" width="2" height="2" fill="#00f2ff" opacity="0.8"/>
  <rect x="22" y="12" width="2" height="2" fill="#00f2ff" opacity="0.8"/>
  <rect x="10" y="15" width="2" height="2" fill="#00f2ff" opacity="0.6"/>
  <rect x="20" y="15" width="2" height="2" fill="#00f2ff" opacity="0.6"/>
  
  <!-- Detalles de bloques -->
  <rect x="14" y="10" width="4" height="2" fill="#555555" opacity="0.3"/>
</svg>
