<svg width="64" height="64" viewBox="0 0 32 32" xmlns="http://www.w3.org/2000/svg" shape-rendering="crispEdges">
  <rect width="32" height="32" fill="#0077be" />
  <g fill="#32cd32">
    <!-- Continent 1 (North West) -->
    <rect x="3" y="3" width="8" height="6" />
    <rect x="5" y="9" width="4" height="2" />
    <rect x="11" y="4" width="2" height="3" />
    
    <!-- Continent 2 (North East) -->
    <rect x="20" y="4" width="9" height="7" />
    <rect x="22" y="11" width="5" height="2" />
    <rect x="19" y="6" width="1" height="3" />
    
    <!-- Continent 3 (Center) -->
    <rect x="11" y="13" width="10" height="6" />
    <rect x="13" y="11" width="6" height="2" />
    <rect x="13" y="19" width="6" height="2" />
    
    <!-- Continent 4 (South West) -->
    <rect x="4" y="20" width="7" height="8" />
    <rect x="11" y="22" width="2" height="4" />
    <rect x="2" y="22" width="2" height="4" />
    
    <!-- Continent 5 (South East) -->
    <rect x="21" y="21" width="8" height="7" />
    <rect x="19" y="23" width="2" height="3" />
    <rect x="23" y="19" width="4" height="2" />
  </g>
</svg>