<svg width="32" height="32" viewBox="0 0 32 32" fill="none" xmlns="http://www.w3.org/2000/svg">
  <!-- Dithering pattern for fertility heatmap -->
  <g fill="#32cd32">
    <!-- Checkerboard pattern -->
    <path d="M0 0h2v2H0zM4 0h2v2H4zM8 0h2v2H8zM12 0h2v2H12zM16 0h2v2H16zM20 0h2v2H20zM24 0h2v2H24zM28 0h2v2H28z"/>
    <path d="M2 2h2v2H2zM6 2h2v2H6zM10 2h2v2H10zM14 2h2v2H14zM18 2h2v2H18zM22 2h2v2H22zM26 2h2v2H26zM30 2h2v2H30z"/>
    <path d="M0 4h2v2H0zM4 4h2v2H4zM8 4h2v2H8zM12 4h2v2H12zM16 4h2v2H16zM20 4h2v2H20zM24 4h2v2H24zM28 4h2v2H28z"/>
    <path d="M2 6h2v2H2zM6 6h2v2H6zM10 6h2v2H10zM14 6h2v2H14zM18 6h2v2H18zM22 6h2v2H22zM26 6h2v2H26zM30 6h2v2H30z"/>
    <path d="M0 8h2v2H0zM4 8h2v2H4zM8 8h2v2H8zM12 8h2v2H12zM16 8h2v2H16zM20 8h2v2H20zM24 8h2v2H24zM28 8h2v2H28z"/>
    <path d="M2 10h2v2H2zM6 10h2v2H6zM10 10h2v2H10zM14 10h2v2H14zM18 10h2v2H18zM22 10h2v2H22zM26 10h2v2H26zM30 10h2v2H30z"/>
    <path d="M0 12h2v2H0zM4 12h2v2H4zM8 12h2v2H8zM12 12h2v2H12zM16 12h2v2H16zM20 12h2v2H20zM24 12h2v2H24zM28 12h2v2H28z"/>
    <path d="M2 14h2v2H2zM6 14h2v2H6zM10 14h2v2H10zM14 14h2v2H14zM18 14h2v2H18zM22 14h2v2H22z6 14h2v2H26zM30 14h2v2H30z"/>
    <path d="M0 16h2v2H0zM4 16h2v2H4zM8 16h2v2H8zM12 16h2v2H12zM16 16h2v2H16zM20 16h2v2H20zM24 16h2v2H24zM28 16h2v2H28z"/>
    <path d="M2 18h2v2H2zM6 18h2v2H6zM10 18h2v2H10zM14 18h2v2H14zM18 18h2v2H18zM22 18h2v2H22zM26 18h2v2H26zM30 18h2v2H30z"/>
    <path d="M0 20h2v2H0zM4 20h2v2H4zM8 20h2v2H8zM12 20h2v2H12zM16 20h2v2H16zM20 20h2v2H20zM24 20h2v2H24zM28 20h2v2H28z"/>
    <path d="M2 22h2v2H2zM6 22h2v2H6zM10 22h2v2H10zM14 22h2v2H14zM18 22h2v2H18zM22 22h2v2H22zM26 22h2v2H26zM30 22h2v2H30z"/>
    <path d="M0 24h2v2H0zM4 24h2v2H4zM8 24h2v2H8zM12 24h2v2H12zM16 24h2v2H16zM20 24h2v2H20zM24 24h2v2H24zM28 24h2v2H28z"/>
    <path d="M2 26h2v2H2zM6 26h2v2H6zM10 26h2v2H10zM14 26h2v2H14zM18 26h2v2H18zM22 26h2v2H22zM26 26h2v2H26zM30 26h2v2H30z"/>
    <path d="M0 28h2v2H0zM4 28h2v2H4zM8 28h2v2H8zM12 28h2v2H12zM16 28h2v2H16zM20 28h2v2H20zM24 28h2v2H24zM28 28h2v2H28z"/>
    <path d="M2 30h2v2H2zM6 30h2v2H6zM10 30h2v2H10zM14 30h2v2H14zM18 30h2v2H18zM22 30h2v2H22zM26 30h2v2H26zM30 30h2v2H30z"/>
  </g>
</svg>