<svg xmlns="http://www.w3.org/2000/svg" viewBox="0 0 32 32" shape-rendering="crispEdges">
  <!-- Borde -->
  <path d="M14 4h4v2h4v4h4v6h2v10h-2v2h-4v2h-8v-2h-6v-4h-2v-10h2v-6h4v-4z" fill="#000000"/>
  <!-- Cuerpo Principal -->
  <path d="M14 6h4v4h4v4h4v6h2v6h-2v2h-4v2h-6v-2h-6v-4h-2v-6h2v-6h4v-4z" fill="#1a1a2e"/>
  <!-- Facetas de Sombra -->
  <path d="M18 10h4v4h4v6h2v6h-4v-4h-4v-4h-4v-8z" fill="#0f0f1b"/>
  <!-- Brillos Cortantes -->
  <path d="M14 8h2v2h-2zm-4 6h2v6h-2zm6 10h4v2h-4z" fill="#4a5568"/>
  <rect x="22" y="8" width="2" height="2" fill="#ffffff"/>
</svg>